<svg width="17" height="21" viewBox="0 0 17 21" fill="none" xmlns="http://www.w3.org/2000/svg">
<path d="M16 17.2236V14.476H3.8125C2.2592 14.476 1 15.7061 1 17.2236M5.5 19.9711H13C14.0501 19.9711 14.5752 19.9711 14.9763 19.7715C15.329 19.5959 15.6159 19.3157 15.7956 18.971C16 18.5792 16 18.0662 16 17.0404V4.58461C16 3.55874 16 3.04581 15.7956 2.65398C15.6159 2.30931 15.329 2.0291 14.9763 1.85349C14.5752 1.65384 14.0501 1.65384 13 1.65384H5.5C3.92485 1.65384 3.13728 1.65384 2.53565 1.95331C2.00644 2.21673 1.57619 2.63706 1.30654 3.15405C1 3.74179 1 4.51119 1 6.04999V15.575C1 17.1138 1 17.8832 1.30654 18.471C1.57619 18.988 2.00644 19.4083 2.53565 19.6717C3.13728 19.9711 3.92485 19.9711 5.5 19.9711Z" stroke="white" stroke-width="1.5" stroke-linecap="round" stroke-linejoin="round"/>
</svg>
